<mxfile host="app.diagrams.net" modified="2024-06-16T12:31:53.329Z" agent="Mozilla/5.0 (X11; Linux x86_64; rv:127.0) Gecko/20100101 Firefox/127.0" version="24.5.4" etag="aia3cpfM9VEnUCOUkoZT" type="github">
  <diagram name="Page-1" id="QtiQz_5rlWIYYZv3E-pV">
    <mxGraphModel>
      <root>
        <mxCell id="0" />
        <mxCell id="1" parent="0" />
      </root>
    </mxGraphModel>
  </diagram>
</mxfile>
